<?xml version="1.0" encoding="UTF-8"?>
<svg id="Camada_1" xmlns="http://www.w3.org/2000/svg" version="1.1" viewBox="0 0 1080 1080">
  <!-- Generator: Adobe Illustrator 30.0.0, SVG Export Plug-In . SVG Version: 2.1.1 Build 123)  -->
  <defs>
    <style>
      .st0 {
        fill: #004a8d;
      }

      .st1 {
        fill: #f7941e;
      }
    </style>
  </defs>
  <path class="st1" d="M460.86,934.73v-68.52c0-2.7,1.1-5.29,3.04-7.16l321.85-310.94c6.32-6.11,16.88-1.63,16.88,7.16v69.35c0,2.71-1.1,5.3-3.05,7.17l-321.85,310.11c-6.33,6.1-16.87,1.61-16.87-7.17Z"/>
  <path class="st1" d="M410.94,276.43l-53.73,53.71c-6.27,6.26-1.85,16.98,7.01,17.01l244.31.79c5.49.02,9.93,4.47,9.93,9.96v280.66c0,8.88,10.73,13.32,17.01,7.04l53.65-53.67c1.87-1.87,2.92-4.4,2.92-7.04v-236.68h0v-63.66c0-5.49-4.44-9.94-9.92-9.96l-264.09-1.07c-2.66-.01-5.21,1.04-7.08,2.92Z"/>
  <path class="st1" d="M522.67,164.7l-53.73,53.71c-6.27,6.26-1.85,16.98,7.01,17.01l243.18.78c5.49.02,9.93,4.47,9.93,9.96v283.27c0,8.88,10.73,13.32,17.01,7.04l53.65-53.67c1.87-1.87,2.92-4.4,2.92-7.04v-239.29h0v-63.66c0-5.49-4.44-9.94-9.92-9.96l-262.96-1.07c-2.66-.01-5.21,1.04-7.08,2.92Z"/>
  <path class="st0" d="M507.87,385.22h-157.63c-5.5,0-9.96,4.46-9.96,9.96v595.27c0,5.5,4.46,9.96,9.96,9.96h53.65c5.5,0,9.96-4.46,9.96-9.96v-137.07c0-2.64,1.05-5.18,2.92-7.04l161.76-161.76c1.87-1.87,2.92-4.4,2.92-7.04v-282.36c0-5.5-4.46-9.96-9.96-9.96h-63.62ZM504.95,654.11l-74.09,74.09c-6.28,6.28-17.01,1.83-17.01-7.04v-252.39c0-5.5,4.46-9.96,9.96-9.96h74.09c5.5,0,9.96,4.46,9.96,9.96v178.3c0,2.64-1.05,5.18-2.92,7.04Z"/>
</svg>