<?xml version="1.0" encoding="UTF-8"?>
<svg id="Camada_1" xmlns="http://www.w3.org/2000/svg" version="1.1" viewBox="0 0 1920 1080">
  <!-- Generator: Adobe Illustrator 30.0.0, SVG Export Plug-In . SVG Version: 2.1.1 Build 123)  -->
  <defs>
    <style>
      .st0 {
        fill: #004a8d;
      }

      .st1 {
        fill: #f7941e;
      }
    </style>
  </defs>
  <g>
    <path class="st1" d="M334.79,762.61v-35.09c0-1.38.56-2.71,1.56-3.67l164.8-159.21c3.24-3.13,8.65-.83,8.65,3.67v35.51c0,1.39-.56,2.71-1.56,3.67l-164.8,158.79c-3.24,3.12-8.64.83-8.64-3.67Z"/>
    <path class="st1" d="M309.23,425.54l-27.51,27.5c-3.21,3.21-.95,8.69,3.59,8.71l125.1.4c2.81,0,5.08,2.29,5.08,5.1v143.71c0,4.54,5.5,6.82,8.71,3.61l27.47-27.48c.96-.96,1.49-2.25,1.49-3.61v-121.19h0v-32.59c0-2.81-2.27-5.09-5.08-5.1l-135.23-.55c-1.36,0-2.67.53-3.63,1.49Z"/>
    <path class="st1" d="M366.44,368.33l-27.51,27.5c-3.21,3.21-.95,8.69,3.59,8.71l124.52.4c2.81,0,5.08,2.29,5.08,5.1v145.05c0,4.54,5.5,6.82,8.71,3.61l27.47-27.48c.96-.96,1.49-2.25,1.49-3.61v-122.53h0v-32.59c0-2.81-2.27-5.09-5.08-5.1l-134.65-.55c-1.36,0-2.67.53-3.63,1.49Z"/>
    <path class="st0" d="M358.86,481.24h-80.71c-2.82,0-5.1,2.28-5.1,5.1v304.8c0,2.82,2.28,5.1,5.1,5.1h27.47c2.82,0,5.1-2.28,5.1-5.1v-70.18c0-1.35.54-2.65,1.49-3.61l82.83-82.83c.96-.96,1.49-2.25,1.49-3.61v-144.58c0-2.82-2.28-5.1-5.1-5.1h-32.57ZM357.37,618.92l-37.94,37.94c-3.21,3.21-8.71.94-8.71-3.61v-129.24c0-2.82,2.28-5.1,5.1-5.1h37.94c2.82,0,5.1,2.28,5.1,5.1v91.3c0,1.35-.54,2.65-1.49,3.61Z"/>
  </g>
  <g>
    <g>
      <path class="st0" d="M703.02,471.27c-11.33-6.08-24.44-9.11-39.33-9.11h-95.74v238.76h44.99v-92.62h50.74c14.89,0,28-3.01,39.33-9.03,11.33-6.02,20.12-14.53,26.36-25.53,6.24-11,9.36-23.78,9.36-38.34s-3.12-27.37-9.36-38.43c-6.24-11.06-15.03-19.62-26.36-25.7ZM688.65,550.83c-2.3,4.49-5.5,7.96-9.61,10.43-4.11,2.46-8.84,3.69-14.2,3.69h-51.89v-59.44h51.89c5.47,0,10.26,1.23,14.37,3.69,4.11,2.46,7.28,5.97,9.52,10.51,2.24,4.54,3.37,9.77,3.37,15.68s-1.15,10.95-3.45,15.44Z"/>
      <path class="st0" d="M913.21,595.99c10.02-5.91,17.76-14.26,23.24-25.04,5.47-10.78,8.21-23.29,8.21-37.52s-2.74-26.74-8.21-37.52c-5.48-10.78-13.19-19.13-23.15-25.04-9.96-5.91-21.51-8.87-34.65-8.87h-104.6v238.93h44.99v-96.06h27.29l53.83,96.06h54.52l-57.08-98.43c5.56-1.48,10.76-3.64,15.61-6.5ZM819.03,505.35h56c4.71,0,8.81,1.15,12.32,3.45,3.5,2.3,6.21,5.58,8.13,9.85,1.91,4.27,2.87,9.2,2.87,14.78-.11,5.58-1.12,10.51-3.04,14.78-1.92,4.27-4.63,7.55-8.13,9.85-3.5,2.3-7.55,3.45-12.15,3.45h-56v-56.16Z"/>
      <path class="st0" d="M1145.32,501.49c-7.23-13.3-17.43-23.59-30.63-30.87-13.19-7.28-28.44-10.92-45.73-10.92s-32.54,3.64-45.73,10.92c-13.19,7.28-23.4,17.57-30.63,30.87-7.23,13.3-10.84,28.71-10.84,46.23v67.66c0,17.52,3.61,32.92,10.84,46.23,7.23,13.3,17.43,23.59,30.63,30.87,13.19,7.28,28.43,10.92,45.73,10.92s32.54-3.64,45.73-10.92c13.19-7.28,23.4-17.57,30.63-30.87,7.23-13.3,10.84-28.71,10.84-46.23v-67.66c0-17.51-3.61-32.92-10.84-46.23ZM1109.52,616.52c0,8.32-1.67,15.66-5.01,22-3.34,6.35-8.07,11.25-14.2,14.7-6.13,3.45-13.25,5.17-21.35,5.17s-15.22-1.72-21.35-5.17c-6.13-3.45-10.87-8.35-14.2-14.7-3.34-6.35-5.01-13.68-5.01-22v-69.95c0-8.32,1.67-15.65,5.01-22,3.34-6.35,8.07-11.25,14.2-14.7,6.13-3.45,13.24-5.17,21.35-5.17s15.22,1.72,21.35,5.17c6.13,3.45,10.86,8.35,14.2,14.7,3.34,6.35,5.01,13.69,5.01,22v69.95Z"/>
    </g>
    <g>
      <path class="st1" d="M1194.77,752.72c-8.98,0-17.64-1.02-25.84-3.03l5.83-25.09c3.73.59,7.24.89,10.49.89,10.15,0,17.74-3.02,22.56-8.98,4.36-5.41,6.47-13.19,6.47-23.78v-177.22h35.38v184.35c0,17.91-4.51,31.31-13.4,39.84-9.01,8.64-22.97,13.02-41.5,13.02ZM1232.15,475.8c-7.58,0-13.36-2.03-17.69-6.2-4.23-4.07-6.28-9.44-6.28-16.42s1.97-12.17,6.21-16.18c4.34-4.1,10.15-6.1,17.76-6.1s13.08,2,17.43,6.1c4.23,4.01,6.21,9.15,6.21,16.17s-2.05,12.34-6.28,16.41c-4.34,4.18-10.01,6.21-17.36,6.21Z"/>
      <path class="st1" d="M1480.87,678.28c-18.6,0-32.02-4.59-41-14.05-9-9.46-13.56-24.01-13.56-43.23v-77.27h-27.86v-23.83h28.64l1.02-42.13h33.58v42.13h43.49v23.83h-43.49v71.84c0,20.82,10.83,32.76,29.71,32.76,4.46,0,9.17-.63,14.09-1.89l6.96,26.64c-10,3.45-20.58,5.2-31.58,5.2Z"/>
      <path class="st1" d="M1337.01,682.32c-20.43,0-37.14-6.55-49.65-19.47-12.48-12.87-18.81-30.88-18.81-53.53s6.12-40.38,18.19-53.33c12.16-13.05,28.21-19.66,47.7-19.66s36.06,6.51,48.06,19.35c11.91,12.74,17.95,30.79,17.95,53.64v10.51h-97.39c1.42,11.04,4.93,19.4,10.46,24.9,6.39,6.36,14.07,9.45,23.49,9.45,7.18,0,13.46-1.77,19.19-5.41,5.14-3.26,7.66-7.58,7.92-13.57l.21-4.79h33.94l-.31,5.67c-1.98,14.77-8.8,26.35-20.27,34.42-11.14,7.84-24.83,11.81-40.67,11.81ZM1365.03,591.71c-1.99-8.47-5.35-14.99-10.02-19.43-5.62-5.34-12.35-7.94-20.57-7.94s-14.65,2.59-20.36,7.91c-4.72,4.4-8.09,10.93-10.03,19.46h60.98Z"/>
      <path class="st1" d="M1573.47,682.32c-14.05,0-25.85-3.92-35.07-11.64-9.48-7.95-14.28-18.32-14.28-30.85,0-33.56,28.1-50.57,83.53-50.57h6.22c-.14-6.34-.57-11.08-1.29-14.14-.67-2.88-2.62-5.29-5.97-7.36-2.52-1.56-7.84-3.42-18.81-3.42-23.39,0-26.53,9.86-26.86,17.27l-.21,4.78h-33.15l.34-5.32c.95-14.86,6.81-26.23,17.4-33.79,10.17-7.26,24.88-10.95,43.7-10.95,17.64,0,31.73,3.65,41.85,10.85,10.66,7.58,16.07,22.06,16.07,43.03v89.04h-33.03v-8.08c-11.25,7.4-24.81,11.15-40.45,11.15ZM1603.12,616.28c-45.23,0-45.23,16.8-45.23,22.32,0,5.03,1.68,8.59,5.29,11.2,4.01,2.9,9.7,4.38,16.91,4.38,6.8,0,13.49-1.56,19.88-4.65,5.78-2.79,10.47-6.52,13.96-11.09v-22.16h-10.8Z"/>
    </g>
  </g>
</svg>